<svg xmlns="http://www.w3.org/2000/svg" xmlns:xlink="http://www.w3.org/1999/xlink" version="1.1" width="512px" height="512px" style="shape-rendering:geometricPrecision; text-rendering:geometricPrecision; image-rendering:optimizeQuality; fill-rule:evenodd; clip-rule:evenodd">
<g><path style="opacity:0.954" fill="#ffffff" d="M 511.5,63.5 C 511.5,170.167 511.5,276.833 511.5,383.5C 508.023,395.809 500.023,403.642 487.5,407C 434.497,407.167 381.497,407.667 328.5,408.5C 330.909,424.102 332.909,439.769 334.5,455.5C 343.173,455.334 351.84,455.5 360.5,456C 366.653,457.465 368.82,461.298 367,467.5C 366.5,469.333 365.333,470.5 363.5,471C 291.5,471.667 219.5,471.667 147.5,471C 143.788,468.487 142.622,464.987 144,460.5C 145.339,457.906 147.506,456.406 150.5,456C 159.16,455.5 167.827,455.334 176.5,455.5C 178.091,439.769 180.091,424.102 182.5,408.5C 129.503,407.667 76.5031,407.167 23.5,407C 10.9766,403.642 2.97662,395.809 -0.5,383.5C -0.5,276.5 -0.5,169.5 -0.5,62.5C 3.42419,50.7449 11.4242,43.2449 23.5,40C 178.167,39.3333 332.833,39.3333 487.5,40C 500.015,43.349 508.015,51.1824 511.5,63.5 Z M 26.5,55.5 C 179.167,55.3333 331.834,55.5 484.5,56C 491.598,58.6786 495.431,63.8452 496,71.5C 496.667,172.833 496.667,274.167 496,375.5C 495.437,383.138 491.604,388.305 484.5,391C 331.833,391.667 179.167,391.667 26.5,391C 19.3965,388.305 15.5631,383.138 15,375.5C 14.3333,274.167 14.3333,172.833 15,71.5C 15.6858,63.7592 19.5191,58.4259 26.5,55.5 Z M 180.5,159.5 C 190.156,160.092 199.822,160.425 209.5,160.5C 210.577,170.795 212.244,180.962 214.5,191C 206.147,191.832 197.813,191.665 189.5,190.5C 186.293,180.213 183.293,169.88 180.5,159.5 Z M 225.5,161.5 C 235.486,162.166 245.486,162.499 255.5,162.5C 255.5,172.167 255.5,181.833 255.5,191.5C 247.167,191.5 238.833,191.5 230.5,191.5C 228.833,181.5 227.167,171.5 225.5,161.5 Z M 271.5,163.5 C 280.815,164.232 290.148,164.566 299.5,164.5C 299.194,173.53 298.527,182.53 297.5,191.5C 288.833,191.5 280.167,191.5 271.5,191.5C 271.5,182.167 271.5,172.833 271.5,163.5 Z M 315.5,165.5 C 324.149,166.203 332.815,166.536 341.5,166.5C 340.167,174.833 338.833,183.167 337.5,191.5C 329.5,191.5 321.5,191.5 313.5,191.5C 314.707,182.887 315.374,174.22 315.5,165.5 Z M 194.5,207.5 C 202.087,207.186 209.587,207.519 217,208.5C 219.16,220.462 220.994,232.462 222.5,244.5C 218.601,244.965 214.767,245.632 211,246.5C 208.132,245.639 205.798,243.972 204,241.5C 200.518,230.236 197.351,218.903 194.5,207.5 Z M 233.5,207.5 C 240.833,207.5 248.167,207.5 255.5,207.5C 255.667,218.505 255.5,229.505 255,240.5C 249.599,241.638 244.099,242.304 238.5,242.5C 236.942,230.817 235.275,219.151 233.5,207.5 Z M 271.5,207.5 C 279.84,207.334 288.173,207.5 296.5,208C 295.173,217.42 294.173,226.92 293.5,236.5C 286.189,237.386 278.856,238.053 271.5,238.5C 271.5,228.167 271.5,217.833 271.5,207.5 Z M 312.5,207.5 C 319.5,207.5 326.5,207.5 333.5,207.5C 332.987,214.583 331.154,221.25 328,227.5C 322.856,232.823 316.689,234.823 309.5,233.5C 310.619,224.855 311.619,216.189 312.5,207.5 Z M 205.5,295.5 C 211.984,295.815 215.151,299.148 215,305.5C 213.089,310.418 209.589,312.251 204.5,311C 200.139,308.774 198.639,305.274 200,300.5C 201.406,298.256 203.239,296.59 205.5,295.5 Z M 317.5,295.5 C 324.857,295.684 328.024,299.351 327,306.5C 324.774,310.861 321.274,312.361 316.5,311C 309.695,305.382 310.029,300.215 317.5,295.5 Z M 198.5,407.5 C 207.5,407.5 216.5,407.5 225.5,407.5C 228.681,433.749 243.014,443.582 268.5,437C 279.424,430.333 285.09,420.5 285.5,407.5C 294.5,407.5 303.5,407.5 312.5,407.5C 314.5,423.5 316.5,439.5 318.5,455.5C 276.5,455.5 234.5,455.5 192.5,455.5C 194.5,439.5 196.5,423.5 198.5,407.5 Z M 241.5,408.5 C 250.657,407.342 259.991,407.176 269.5,408C 268.4,411.963 266.9,415.797 265,419.5C 258.667,424.833 252.333,424.833 246,419.5C 244.178,415.843 242.678,412.176 241.5,408.5 Z"/></g>
<g><path style="opacity:0.937" fill="#ffffff" d="M 35.5,71.5 C 166.167,71.3333 296.834,71.5 427.5,72C 431.212,74.513 432.378,78.013 431,82.5C 430.065,85.1019 428.232,86.6019 425.5,87C 299.5,87.5 173.5,87.6667 47.5,87.5C 47.5,178.167 47.5,268.833 47.5,359.5C 55.3988,357.449 60.7322,360.115 63.5,367.5C 62.7865,369.811 61.7865,371.978 60.5,374C 52.2704,375.604 43.9371,375.937 35.5,375C 33.6667,374.5 32.5,373.333 32,371.5C 31.3333,272.833 31.3333,174.167 32,75.5C 32.6897,73.6498 33.8564,72.3164 35.5,71.5 Z"/></g>
<g><path style="opacity:0.937" fill="#ffffff" d="M 452.5,71.5 C 460.174,71.3336 467.841,71.5003 475.5,72C 477.333,72.5 478.5,73.6667 479,75.5C 479.667,174.167 479.667,272.833 479,371.5C 478.626,372.416 478.126,373.25 477.5,374C 346.247,375.663 214.914,375.996 83.5,375C 80.484,373.471 79.1506,370.971 79.5,367.5C 79.3361,363.823 81.0028,361.323 84.5,360C 210.833,359.5 337.166,359.333 463.5,359.5C 463.5,268.833 463.5,178.167 463.5,87.5C 457.961,88.3616 453.128,87.0282 449,83.5C 446.845,78.4698 448.012,74.4698 452.5,71.5 Z"/></g>
<g><path style="opacity:0.941" fill="#ffffff" d="M 139.5,119.5 C 143.463,119.089 147.13,119.922 150.5,122C 156.5,126 162.5,130 168.5,134C 171.4,136.397 173.733,139.23 175.5,142.5C 232.132,145.855 288.798,148.689 345.5,151C 355.628,149.468 360.128,153.634 359,163.5C 354.795,184.861 350.461,206.194 346,227.5C 341.999,238.833 334.166,246 322.5,249C 283.577,254.066 244.577,258.399 205.5,262C 202.5,267.667 199.5,273.333 196.5,279C 243.833,279.333 291.167,279.667 338.5,280C 343.789,283.51 344.789,288.01 341.5,293.5C 346.516,316.652 337.182,327.818 313.5,327C 298.83,321.5 293.163,311 296.5,295.5C 274.5,295.5 252.5,295.5 230.5,295.5C 233.469,317.696 223.802,328.196 201.5,327C 184.988,320.306 179.988,308.64 186.5,292C 180.945,287.426 179.111,281.592 181,274.5C 184.636,267.395 188.136,260.228 191.5,253C 180.487,219.119 170.32,184.952 161,150.5C 160.535,149.069 159.701,147.903 158.5,147C 151.074,142.538 143.908,137.705 137,132.5C 134.458,127.438 135.292,123.105 139.5,119.5 Z M 180.5,159.5 C 183.293,169.88 186.293,180.213 189.5,190.5C 197.813,191.665 206.147,191.832 214.5,191C 212.244,180.962 210.577,170.795 209.5,160.5C 199.822,160.425 190.156,160.092 180.5,159.5 Z M 225.5,161.5 C 227.167,171.5 228.833,181.5 230.5,191.5C 238.833,191.5 247.167,191.5 255.5,191.5C 255.5,181.833 255.5,172.167 255.5,162.5C 245.486,162.499 235.486,162.166 225.5,161.5 Z M 271.5,163.5 C 271.5,172.833 271.5,182.167 271.5,191.5C 280.167,191.5 288.833,191.5 297.5,191.5C 298.527,182.53 299.194,173.53 299.5,164.5C 290.148,164.566 280.815,164.232 271.5,163.5 Z M 315.5,165.5 C 315.374,174.22 314.707,182.887 313.5,191.5C 321.5,191.5 329.5,191.5 337.5,191.5C 338.833,183.167 340.167,174.833 341.5,166.5C 332.815,166.536 324.149,166.203 315.5,165.5 Z M 194.5,207.5 C 197.351,218.903 200.518,230.236 204,241.5C 205.798,243.972 208.132,245.639 211,246.5C 214.767,245.632 218.601,244.965 222.5,244.5C 220.994,232.462 219.16,220.462 217,208.5C 209.587,207.519 202.087,207.186 194.5,207.5 Z M 233.5,207.5 C 235.275,219.151 236.942,230.817 238.5,242.5C 244.099,242.304 249.599,241.638 255,240.5C 255.5,229.505 255.667,218.505 255.5,207.5C 248.167,207.5 240.833,207.5 233.5,207.5 Z M 271.5,207.5 C 271.5,217.833 271.5,228.167 271.5,238.5C 278.856,238.053 286.189,237.386 293.5,236.5C 294.173,226.92 295.173,217.42 296.5,208C 288.173,207.5 279.84,207.334 271.5,207.5 Z M 312.5,207.5 C 311.619,216.189 310.619,224.855 309.5,233.5C 316.689,234.823 322.856,232.823 328,227.5C 331.154,221.25 332.987,214.583 333.5,207.5C 326.5,207.5 319.5,207.5 312.5,207.5 Z M 205.5,295.5 C 203.239,296.59 201.406,298.256 200,300.5C 198.639,305.274 200.139,308.774 204.5,311C 209.589,312.251 213.089,310.418 215,305.5C 215.151,299.148 211.984,295.815 205.5,295.5 Z M 317.5,295.5 C 310.029,300.215 309.695,305.382 316.5,311C 321.274,312.361 324.774,310.861 327,306.5C 328.024,299.351 324.857,295.684 317.5,295.5 Z"/></g>
</svg>