<svg xmlns="http://www.w3.org/2000/svg" version="1.1" width="30px" height="30px" style="shape-rendering:geometricPrecision; text-rendering:geometricPrecision; image-rendering:optimizeQuality; fill-rule:evenodd; clip-rule:evenodd" xmlns:xlink="http://www.w3.org/1999/xlink" viewBox="0 0 30 30"><g><path style="opacity:0.954" fill="#000000" d="M29.971 3.721v18.75c-0.204 0.721 -0.672 1.18 -1.406 1.377 -3.106 0.01 -6.211 0.039 -9.316 0.088a52.981 52.981 0 0 1 0.352 2.754c0.508 -0.01 1.016 0 1.523 0.029 0.361 0.086 0.488 0.31 0.381 0.674a0.275 0.275 0 0 1 -0.205 0.205 684.52 684.52 0 0 1 -12.656 0c-0.217 -0.147 -0.286 -0.352 -0.205 -0.615a0.475 0.475 0 0 1 0.381 -0.264c0.507 -0.029 1.015 -0.039 1.523 -0.029a52.981 52.981 0 0 1 0.352 -2.754 741.438 741.438 0 0 0 -9.316 -0.088c-0.734 -0.197 -1.203 -0.656 -1.406 -1.377V3.662c0.23 -0.689 0.699 -1.128 1.406 -1.318 9.063 -0.039 18.125 -0.039 27.188 0 0.733 0.196 1.202 0.655 1.406 1.377ZM1.553 3.252c8.945 -0.01 17.891 0 26.836 0.029 0.416 0.157 0.64 0.46 0.674 0.908 0.039 5.937 0.039 11.875 0 17.813 -0.033 0.448 -0.258 0.75 -0.674 0.908 -8.945 0.039 -17.891 0.039 -26.836 0 -0.416 -0.158 -0.641 -0.461 -0.674 -0.908a1353.697 1353.697 0 0 1 0 -17.813c0.04 -0.454 0.265 -0.766 0.674 -0.938Zm9.023 6.094a31.787 31.787 0 0 0 1.699 0.059 15.496 15.496 0 0 0 0.293 1.787 6.138 6.138 0 0 1 -1.465 -0.029 48.059 48.059 0 0 1 -0.527 -1.816Zm2.637 0.117c0.585 0.039 1.171 0.059 1.758 0.059v1.699h-1.465l-0.293 -1.758Zm2.695 0.117a19.202 19.202 0 0 0 1.641 0.059 19.929 19.929 0 0 1 -0.117 1.582h-1.523V9.58Zm2.578 0.117a17.88 17.88 0 0 0 1.523 0.059l-0.234 1.465h-1.406a12.241 12.241 0 0 0 0.117 -1.523Zm-7.09 2.461c0.445 -0.018 0.884 0.001 1.318 0.059a39.375 39.375 0 0 1 0.322 2.109 6.346 6.346 0 0 0 -0.674 0.117 0.764 0.764 0 0 1 -0.41 -0.293 37.737 37.737 0 0 1 -0.557 -1.992Zm2.285 0h1.289c0.01 0.645 0 1.289 -0.029 1.934a5.637 5.637 0 0 1 -0.967 0.117 111.307 111.307 0 0 0 -0.293 -2.051Zm2.227 0c0.489 -0.01 0.977 0 1.465 0.029a24.05 24.05 0 0 0 -0.176 1.67 21.604 21.604 0 0 1 -1.289 0.117v-1.816Zm2.402 0h1.23c-0.03 0.415 -0.137 0.806 -0.322 1.172a1.14 1.14 0 0 1 -1.084 0.352 55.408 55.408 0 0 0 0.176 -1.523Zm-6.27 5.156c0.38 0.018 0.565 0.214 0.557 0.586 -0.112 0.288 -0.317 0.396 -0.615 0.322 -0.256 -0.13 -0.343 -0.336 -0.264 -0.615a0.775 0.775 0 0 1 0.322 -0.293Zm6.563 0c0.431 0.011 0.617 0.226 0.557 0.645 -0.13 0.256 -0.336 0.343 -0.615 0.264 -0.399 -0.329 -0.379 -0.632 0.059 -0.908Zm-6.973 6.563h1.582c0.186 1.538 1.026 2.114 2.52 1.729 0.64 -0.391 0.972 -0.967 0.996 -1.729h1.582l0.352 2.813h-7.383l0.352 -2.813Zm2.52 0.059a7.673 7.673 0 0 1 1.641 -0.029 3.556 3.556 0 0 1 -0.264 0.674c-0.371 0.312 -0.742 0.312 -1.113 0a4.579 4.579 0 0 1 -0.264 -0.645Z"/></g><g><path style="opacity:0.937" fill="#000000" d="M2.08 4.189c7.656 -0.01 15.313 0 22.969 0.029 0.217 0.147 0.286 0.352 0.205 0.615a0.38 0.38 0 0 1 -0.322 0.264c-7.383 0.029 -14.766 0.039 -22.148 0.029v15.938c0.463 -0.12 0.775 0.036 0.938 0.469a1.568 1.568 0 0 1 -0.176 0.381c-0.482 0.094 -0.97 0.113 -1.465 0.059a0.275 0.275 0 0 1 -0.205 -0.205c-0.039 -5.781 -0.039 -11.562 0 -17.344a0.407 0.407 0 0 1 0.205 -0.234Z"/></g><g><path style="opacity:0.937" fill="#000000" d="M26.514 4.189c0.45 -0.01 0.899 0 1.348 0.029a0.275 0.275 0 0 1 0.205 0.205c0.039 5.781 0.039 11.562 0 17.344a0.554 0.554 0 0 1 -0.088 0.146 1140.126 1140.126 0 0 1 -23.086 0.059c-0.177 -0.09 -0.255 -0.236 -0.234 -0.439 -0.01 -0.215 0.088 -0.362 0.293 -0.439 7.402 -0.029 14.805 -0.039 22.207 -0.029V5.127a1.01 1.01 0 0 1 -0.85 -0.234c-0.126 -0.295 -0.058 -0.529 0.205 -0.703Z"/></g><g><path style="opacity:0.941" fill="#000000" d="M8.174 7.002c0.232 -0.024 0.447 0.025 0.645 0.146l1.055 0.703a1.672 1.672 0 0 1 0.41 0.498 540.891 540.891 0 0 0 9.961 0.498c0.593 -0.09 0.857 0.154 0.791 0.732a318.157 318.157 0 0 1 -0.762 3.75c-0.234 0.664 -0.693 1.084 -1.377 1.26a183.761 183.761 0 0 1 -6.855 0.762l-0.527 0.996 8.32 0.059c0.31 0.206 0.368 0.469 0.176 0.791 0.294 1.357 -0.253 2.011 -1.641 1.963 -0.86 -0.322 -1.192 -0.938 -0.996 -1.846h-3.867c0.174 1.301 -0.392 1.916 -1.699 1.846 -0.968 -0.392 -1.26 -1.076 -0.879 -2.051 -0.325 -0.268 -0.433 -0.61 -0.322 -1.025a37.477 37.477 0 0 0 0.615 -1.26 125.119 125.119 0 0 1 -1.788 -6.006 0.409 0.409 0 0 0 -0.146 -0.205 14.513 14.513 0 0 1 -1.26 -0.85c-0.149 -0.297 -0.1 -0.55 0.146 -0.762Zm2.402 2.344a48.059 48.059 0 0 0 0.527 1.816 6.136 6.136 0 0 0 1.465 0.029 15.496 15.496 0 0 1 -0.293 -1.787 31.787 31.787 0 0 1 -1.699 -0.059Zm2.637 0.117 0.293 1.758h1.465V9.522a26.448 26.448 0 0 1 -1.758 -0.059Zm2.695 0.117v1.641h1.523a19.797 19.797 0 0 0 0.117 -1.582 19.202 19.202 0 0 1 -1.641 -0.059Zm2.578 0.117a12.241 12.241 0 0 1 -0.117 1.523h1.406l0.234 -1.465a17.88 17.88 0 0 1 -1.523 -0.059Zm-7.09 2.461a37.737 37.737 0 0 0 0.557 1.992 0.764 0.764 0 0 0 0.41 0.293 6.346 6.346 0 0 1 0.674 -0.117 39.375 39.375 0 0 0 -0.322 -2.109 7.627 7.627 0 0 0 -1.318 -0.059Zm2.285 0a111.307 111.307 0 0 1 0.293 2.051 5.637 5.637 0 0 0 0.967 -0.117c0.029 -0.644 0.039 -1.289 0.029 -1.934h-1.289Zm2.227 0v1.816a21.604 21.604 0 0 0 1.289 -0.117c0.039 -0.561 0.098 -1.118 0.176 -1.67a18.353 18.353 0 0 0 -1.465 -0.029Zm2.402 0a55.408 55.408 0 0 1 -0.176 1.523c0.421 0.078 0.783 -0.04 1.084 -0.352 0.185 -0.366 0.292 -0.757 0.322 -1.172h-1.23Zm-6.27 5.156a0.768 0.768 0 0 0 -0.322 0.293c-0.08 0.28 0.008 0.485 0.264 0.615 0.298 0.073 0.503 -0.034 0.615 -0.322 0.009 -0.372 -0.177 -0.567 -0.557 -0.586Zm6.563 0c-0.438 0.276 -0.457 0.579 -0.059 0.908 0.28 0.08 0.485 -0.008 0.615 -0.264 0.06 -0.419 -0.126 -0.634 -0.557 -0.645Z"/></g></svg>